<svg xmlns="http://www.w3.org/2000/svg" id="Capa_1" enable-background="new 0 0 512 512" height="512" viewBox="0 0 512 512" width="512"><path d="m491 99.004h-148v-8.087c1.392-.855 2.694-1.88 3.88-3.063 3.96-3.96 6.14-9.24 6.15-14.85v-18c-.01-5.61-2.19-10.88-6.15-14.85-3.97-3.96-9.24-6.15-14.85-6.15h-152c-5.61 0-10.89 2.19-14.85 6.15-3.96 3.97-6.15 9.24-6.15 14.85v18c0 5.61 2.19 10.88 6.15 14.85 1.167 1.167 2.449 2.18 3.82 3.029v48.121h-148c-11.58 0-21 9.42-21 21v18c0 7.549 4.004 14.181 10 17.882v120.118c0 5.523 4.477 10 10 10h9.847c1.44 8.682 3.629 17.144 6.552 25.26-4.139.512-8.261 1.231-12.348 2.16-2.8.637-5.191 2.446-6.565 4.968s-1.597 5.512-.613 8.21c9.655 26.475 27.67 48.532 51.314 63.116-2.469 4.455-1.193 10.099 3.028 13.044 17.117 11.94 36.29 18.151 55.381 18.151 5.882 0 11.753-.589 17.558-1.782 4.805-.987 9.491-2.373 14.029-4.137-1.224 2.959-2.298 5.994-3.215 9.094-.814 2.754-.406 5.725 1.122 8.156 1.527 2.432 4.026 4.089 6.86 4.551 4.936.804 9.898 1.201 14.834 1.201 17.16 0 34.037-4.798 48.694-14.005 12.123-7.615 22.19-17.911 29.523-29.991 7.333 12.08 17.401 22.376 29.523 29.991 14.657 9.207 31.534 14.005 48.694 14.005 4.936 0 9.898-.397 14.834-1.201 2.834-.462 5.333-2.119 6.86-4.551 1.528-2.432 1.936-5.402 1.122-8.156-.917-3.1-1.991-6.134-3.215-9.094 4.538 1.764 9.224 3.149 14.029 4.137 5.805 1.193 11.676 1.782 17.558 1.782 19.091 0 38.265-6.211 55.381-18.151 4.221-2.945 5.497-8.589 3.028-13.044 23.644-14.584 41.659-36.641 51.314-63.116.983-2.698.76-5.688-.613-8.21s-3.765-4.331-6.565-4.968c-4.087-.929-8.209-1.648-12.348-2.16 2.923-8.117 5.112-16.579 6.552-25.26h9.845c5.523 0 10-4.477 10-10v-160.118c5.996-3.702 10-10.333 10-17.882v-18c0-11.58-9.42-21-21-21zm-9.811 170.64c-.577-2.952-2.452-5.487-5.105-6.904-2.653-1.416-5.803-1.563-8.577-.4-22.594 9.475-40.945 24.793-53.579 43.664h-70.928v-147h139v115.12c-.249-1.494-.519-2.988-.811-4.48zm-56.798 85.971c-3.083.935-6.125 1.99-9.119 3.16 3.453-30.069 21.129-56.609 48.23-72.189 2.268 22.389-.848 44.512-9.053 63.868-10.179.475-20.284 2.198-30.058 5.161zm-366.84-5.161c-8.205-19.356-11.321-41.479-9.053-63.868 27.101 15.58 44.778 42.12 48.23 72.189-2.994-1.17-6.035-2.226-9.119-3.16-9.774-2.963-19.879-4.686-30.058-5.161zm-13.058-88.114c-2.774-1.162-5.923-1.016-8.577.4-2.653 1.417-4.528 3.952-5.105 6.904-.292 1.492-.562 2.986-.811 4.48v-75.12h139v107h-70.929c-12.633-18.871-30.984-34.189-53.578-43.664zm311.755 63.664c-4.43 3.643-8.655 7.731-12.643 12.245-21.287-1.98-42.56 3.489-60.192 15.531-11.293 7.712-20.617 17.797-27.413 29.451-6.796-11.654-16.12-21.738-27.413-29.451-17.632-12.042-38.905-17.511-60.192-15.531-3.989-4.514-8.214-8.602-12.643-12.245zm-213.068 57.759c-12.248-13.347-19.286-32.494-20.063-54.23 24.824 9.778 42.466 33.534 51.826 58.739-10.404-3.391-21.115-4.922-31.763-4.509zm90.104 15.141c-16.634-2.957-31.585-11.65-42.392-24.639-2.407-5.603-5.142-11.016-8.171-16.166 25.229 2.086 47.695 17.508 58.702 40.324-2.725.04-5.44.201-8.139.481zm95.996-40.805c-3.029 5.15-5.764 10.563-8.171 16.166-10.807 12.989-25.758 21.683-42.392 24.639-2.699-.28-5.415-.441-8.138-.481 11.005-22.816 33.472-38.238 58.701-40.324zm59.603-28.566c-.777 21.736-7.814 40.883-20.063 54.23-10.648-.413-21.359 1.118-31.763 4.509 9.36-25.205 27.002-48.961 51.826-58.739zm103.117-209.529v18c0 .551-.449 1-1 1h-148v-20h148c.551 0 1 .448 1 1zm-312.97-65c0-.55.45-1 1-1h152c.55 0 1 .45 1 1v18c0 .55-.45 1-1 1h-30.86c-5.51 0-10 4.49-10 10s4.49 10 10 10h21.83v212h-134v-212h22.17c5.51 0 10-4.49 10-10s-4.49-10-10-10h-31.14c-.55 0-1-.45-1-1zm-159.03 105c0-.551.449-1 1-1h148v20h-148c-.551 0-1-.449-1-1zm20.472 210.903c26.034-2.874 51.769 4.066 72.645 19.462-12.289 5.105-23.439 13.01-32.85 23.28-17.133-10.157-30.873-24.936-39.795-42.742zm99.656 68.633c-16.208 3.331-33.269.52-48.921-7.913 11.06-13.921 25.629-23.229 41.839-26.559 16.208-3.331 33.269-.52 48.92 7.913-11.059 13.922-25.628 23.229-41.838 26.559zm38.67 18.439c11.937-23.792 36.345-39.125 62.959-39.549-11.936 23.791-36.344 39.124-62.959 39.549zm91.444-39.549c26.614.424 51.023 15.757 62.959 39.549-26.614-.425-51.022-15.758-62.959-39.549zm101.63 21.11c-16.21-3.33-30.779-12.637-41.838-26.558 15.651-8.433 32.712-11.244 48.92-7.913 16.21 3.33 30.779 12.637 41.839 26.559-15.653 8.432-32.714 11.243-48.921 7.912zm59.861-25.89c-9.411-10.27-20.561-18.175-32.85-23.28 20.876-15.396 46.611-22.336 72.645-19.462-8.922 17.805-22.662 32.584-39.795 42.742zm-185.733-195.646v-32c0-5.523 4.477-10 10-10s10 4.477 10 10v32c0 5.523-4.477 10-10 10s-10-4.477-10-10zm161-16v32c0 5.523-4.477 10-10 10s-10-4.477-10-10v-32c0-5.523 4.477-10 10-10s10 4.477 10 10zm30 0v32c0 5.523-4.477 10-10 10s-10-4.477-10-10v-32c0-5.523 4.477-10 10-10s10 4.477 10 10zm-358 16v32c0 5.523-4.477 10-10 10s-10-4.477-10-10v-32c0-5.523 4.477-10 10-10s10 4.477 10 10zm10 32v-32c0-5.523 4.477-10 10-10s10 4.477 10 10v32c0 5.523-4.477 10-10 10s-10-4.477-10-10zm30 0v-32c0-5.523 4.477-10 10-10s10 4.477 10 10v32c0 5.523-4.477 10-10 10s-10-4.477-10-10zm127.17-166c0-5.51 4.49-10 10-10s10 4.49 10 10-4.49 10-10 10-10-4.491-10-10z" fill="#ffffff"/></svg>